<svg width="1321" height="210" viewBox="0 0 1321 210" fill="none" xmlns="http://www.w3.org/2000/svg">
<path d="M315.5 209.494V101.782C315.5 45.62 269.974 0.0944606 213.801 0.0944606C157.639 0.0944606 112.113 45.62 112.113 101.782V110.096C112.113 77.8635 138.244 51.733 170.476 51.733C202.709 51.733 228.839 77.8635 228.839 110.096V209.494H315.5Z" fill="white"/>
<path d="M157.761 77.6475C132.553 77.6475 112.113 98.0873 112.113 123.295V177.89C112.113 195.296 126.218 209.4 143.612 209.4H203.409V123.295C203.409 98.0873 182.969 77.6475 157.761 77.6475Z" fill="white"/>
<path d="M0 209.4V101.688C0 45.5255 45.5255 0 101.699 0C113.669 0 125.106 2.16736 135.765 5.96857C106.367 23.9965 86.6608 56.5513 86.6608 93.852C86.6608 96.9418 86.8498 99.9872 87.1165 103.01C86.8386 105.311 86.6608 107.634 86.6608 110.002V209.4H0Z" fill="white"/>
<path d="M503.988 44.5325L475.496 124.095C473.254 130.297 470.616 134.783 467.582 137.554C464.548 140.325 459.47 141.71 452.347 141.71C445.092 141.71 439.947 140.325 436.913 137.554C433.88 134.783 431.241 130.297 428.999 124.095L400.705 44.5325C399.518 41.3658 398.528 39.7825 397.737 39.7825C396.418 39.7825 395.758 41.2339 395.758 44.1367L396.748 140.127H361.133V21.3761C361.133 17.0219 362.056 13.3274 363.903 10.2927C365.75 7.25796 368.19 5.08087 371.224 3.76142C374.389 2.31001 377.357 1.32042 380.127 0.792638C383.029 0.264864 386.063 0.000976562 389.229 0.000976562C404.398 0.000976562 414.423 6.79616 419.304 20.3865L448.389 100.345C449.708 104.172 451.028 106.085 452.347 106.085C453.666 106.085 454.985 104.172 456.304 100.345L485.389 20.3865C490.27 6.79616 500.229 0.000976562 515.266 0.000976562C534.129 0.000976562 543.56 7.12602 543.56 21.3761V140.127H507.945L509.133 44.1367C509.133 41.2339 508.407 39.7825 506.956 39.7825C506.165 39.7825 505.175 41.3658 503.988 44.5325Z" fill="white"/>
<path d="M681.514 1.58431V28.5012H610.284C606.855 28.5012 604.414 29.2268 602.963 30.6782C601.644 31.9977 600.985 34.3727 600.985 37.8033V57.0013H679.733V82.7307H600.985V103.908C600.985 107.338 601.644 109.779 602.963 111.231C604.414 112.55 606.855 113.21 610.284 113.21H682.305V140.127H586.343C572.361 140.127 565.37 133.068 565.37 118.95V22.9595C565.37 8.70936 572.361 1.58431 586.343 1.58431H681.514Z" fill="white"/>
<path d="M778.399 140.127H721.02C707.038 140.127 700.046 133.068 700.046 118.95V22.9595C700.046 8.70936 707.038 1.58431 721.02 1.58431H776.619C787.831 1.58431 797.262 3.23363 804.913 6.53227C812.563 9.83089 818.367 14.7129 822.324 21.1782C826.413 27.6435 829.249 34.8345 830.832 42.7512C832.415 50.536 833.207 59.9041 833.207 70.8556C833.207 81.6751 832.415 91.0432 830.832 98.9599C829.249 106.877 826.479 114.068 822.522 120.533C818.697 126.998 813.091 131.88 805.704 135.179C798.317 138.478 789.216 140.127 778.399 140.127ZM735.661 39.1887V102.522C735.661 106.217 736.321 108.79 737.64 110.241C739.091 111.693 741.729 112.418 745.554 112.418H753.667C769.891 112.418 781.103 109.582 787.303 103.908C793.635 98.2342 796.8 87.2168 796.8 70.8556C796.8 54.4944 793.635 43.4769 787.303 37.8033C781.103 32.1296 769.891 29.2928 753.667 29.2928H745.554C741.729 29.2928 739.091 30.0185 737.64 31.4699C736.321 32.9213 735.661 35.4942 735.661 39.1887Z" fill="white"/>
<path d="M886.569 140.127H850.954V1.58431H886.569V140.127Z" fill="white"/>
<path d="M931.491 1.58431L968.491 104.502C969.15 106.481 970.074 107.47 971.261 107.47C972.184 107.47 973.108 106.481 974.031 104.502L1011.03 1.58431H1049.02L999.753 123.106C997.378 128.912 994.081 133.464 989.86 136.762C985.639 140.061 979.439 141.71 971.261 141.71C957.147 141.71 947.584 135.509 942.571 123.106L893.502 1.58431H931.491Z" fill="white"/>
<path d="M1172.11 1.58431V28.5012H1100.88C1097.45 28.5012 1095.01 29.2268 1093.56 30.6782C1092.24 31.9977 1091.58 34.3727 1091.58 37.8033V57.0013H1170.33V82.7307H1091.58V103.908C1091.58 107.338 1092.24 109.779 1093.56 111.231C1095.01 112.55 1097.45 113.21 1100.88 113.21H1172.9V140.127H1076.94C1062.95 140.127 1055.96 133.068 1055.96 118.95V22.9595C1055.96 8.70936 1062.95 1.58431 1076.94 1.58431H1172.11Z" fill="white"/>
<path d="M1268.75 140.127H1233.13V29.2928H1181.69V1.58431H1320.19V29.2928H1268.75V140.127Z" fill="white"/>
<path d="M405.205 207.467H396.467L393.248 199.057H373.144L369.925 207.467H361.188L378.4 163.646H387.992L405.205 207.467ZM391.08 192.291L383.196 171.399L375.312 192.291H391.08Z" fill="white"/>
<path d="M464.389 207.467H456.965L434.102 176.195V207.467H426.415V163.646H434.299L456.702 194.064V163.646H464.389V207.467Z" fill="white"/>
<path d="M497.811 207.467H490.124V163.646H497.811V207.467Z" fill="white"/>
<path d="M569.078 207.467H561.392V174.946L547.924 207.467H544.639L531.237 174.946V207.467H523.55V163.646H534.39L546.281 192.488L558.238 163.646H569.078V207.467Z" fill="white"/>
<path d="M634.248 207.467H625.51L622.291 199.057H602.187L598.968 207.467H590.231L607.443 163.646H617.035L634.248 207.467ZM620.123 192.291L612.239 171.399L604.355 192.291H620.123Z" fill="white"/>
<path d="M682.46 207.467H655.458V163.646H663.145V200.7H682.46V207.467Z" fill="white"/>
<path d="M777.29 207.467H769.604V188.349H746.807V207.467H739.12V163.646H746.807V181.582H769.604V163.646H777.29V207.467Z" fill="white"/>
<path d="M833.045 207.467H803.021V163.646H833.045V170.413H810.708V181.779H832.585V188.546H810.708V200.7H833.045V207.467Z" fill="white"/>
<path d="M896.781 207.467H888.043L884.824 199.057H864.721L861.502 207.467H852.764L869.977 163.646H879.568L896.781 207.467ZM882.656 192.291L874.773 171.399L866.889 192.291H882.656Z" fill="white"/>
<path d="M944.993 207.467H917.992V163.646H925.678V200.7H944.993V207.467Z" fill="white"/>
<path d="M979.944 207.467H972.257V170.413H958.986V163.646H993.215V170.413H979.944V207.467Z" fill="white"/>
<path d="M1054.32 207.467H1046.64V188.349H1023.84V207.467H1016.15V163.646H1023.84V181.582H1046.64V163.646H1054.32V207.467Z" fill="white"/>
</svg>
