<svg width="1321" height="210" viewBox="0 0 1321 210" fill="none" xmlns="http://www.w3.org/2000/svg">
<path d="M315.5 209.496V101.784C315.5 45.622 269.974 0.0964137 213.801 0.0964137C157.639 0.0964137 112.113 45.622 112.113 101.784V110.098C112.113 77.8655 138.244 51.735 170.476 51.735C202.709 51.735 228.839 77.8655 228.839 110.098V209.496H315.5Z" fill="#1743A6"/>
<path d="M157.761 77.6495C132.553 77.6495 112.113 98.0893 112.113 123.297V177.892C112.113 195.298 126.218 209.402 143.612 209.402H203.409V123.297C203.409 98.0893 182.969 77.6495 157.761 77.6495Z" fill="#0077C8"/>
<path d="M0 209.4V101.688C0 45.5255 45.5255 0 101.699 0C113.669 0 125.106 2.16736 135.765 5.96857C106.367 23.9965 86.6608 56.5513 86.6608 93.852C86.6608 96.9418 86.8498 99.9872 87.1165 103.01C86.8386 105.311 86.6608 107.634 86.6608 110.002V209.4H0Z" fill="#1743A6"/>
<path d="M503.988 44.5315L475.496 124.095C473.254 130.296 470.616 134.782 467.582 137.553C464.548 140.324 459.47 141.709 452.347 141.709C445.092 141.709 439.947 140.324 436.913 137.553C433.88 134.782 431.241 130.296 428.999 124.095L400.705 44.5315C399.518 41.3648 398.528 39.7815 397.737 39.7815C396.418 39.7815 395.758 41.2329 395.758 44.1357L396.748 140.126H361.133V21.3751C361.133 17.0209 362.056 13.3265 363.903 10.2917C365.75 7.25699 368.19 5.07989 371.224 3.76044C374.389 2.30904 377.357 1.31944 380.127 0.791661C383.029 0.263887 386.063 0 389.229 0C404.398 0 414.423 6.79518 419.304 20.3855L448.389 100.344C449.708 104.171 451.028 106.084 452.347 106.084C453.666 106.084 454.985 104.171 456.304 100.344L485.389 20.3855C490.27 6.79518 500.229 0 515.266 0C534.129 0 543.56 7.12504 543.56 21.3751V140.126H507.945L509.133 44.1357C509.133 41.2329 508.407 39.7815 506.956 39.7815C506.165 39.7815 505.175 41.3648 503.988 44.5315Z" fill="#3F3A39"/>
<path d="M681.514 1.58333V28.5002H610.284C606.855 28.5002 604.414 29.2259 602.963 30.6773C601.644 31.9967 600.985 34.3717 600.985 37.8023V57.0004H679.733V82.7297H600.985V103.907C600.985 107.337 601.644 109.778 602.963 111.23C604.414 112.549 606.855 113.209 610.284 113.209H682.305V140.126H586.343C572.361 140.126 565.37 133.067 565.37 118.949V22.9585C565.37 8.70838 572.361 1.58333 586.343 1.58333H681.514Z" fill="#3F3A39"/>
<path d="M778.399 140.126H721.02C707.038 140.126 700.046 133.067 700.046 118.949V22.9585C700.046 8.70838 707.038 1.58333 721.02 1.58333H776.619C787.831 1.58333 797.262 3.23265 804.913 6.53129C812.563 9.82992 818.367 14.7119 822.324 21.1772C826.413 27.6425 829.249 34.8335 830.832 42.7503C832.415 50.535 833.207 59.9031 833.207 70.8546C833.207 81.6741 832.415 91.0422 830.832 98.9589C829.249 106.876 826.479 114.067 822.522 120.532C818.697 126.997 813.091 131.879 805.704 135.178C798.317 138.477 789.216 140.126 778.399 140.126ZM735.661 39.1877V102.521C735.661 106.216 736.321 108.789 737.64 110.24C739.091 111.692 741.729 112.417 745.554 112.417H753.667C769.891 112.417 781.103 109.581 787.303 103.907C793.635 98.2332 796.8 87.2158 796.8 70.8546C796.8 54.4934 793.635 43.476 787.303 37.8023C781.103 32.1287 769.891 29.2918 753.667 29.2918H745.554C741.729 29.2918 739.091 30.0175 737.64 31.4689C736.321 32.9203 735.661 35.4933 735.661 39.1877Z" fill="#3F3A39"/>
<path d="M886.569 140.126H850.954V1.58333H886.569V140.126Z" fill="#3F3A39"/>
<path d="M931.491 1.58333L968.491 104.501C969.15 106.48 970.074 107.469 971.261 107.469C972.184 107.469 973.108 106.48 974.031 104.501L1011.03 1.58333H1049.02L999.753 123.105C997.378 128.911 994.081 133.463 989.86 136.761C985.639 140.06 979.439 141.709 971.261 141.709C957.147 141.709 947.584 135.508 942.571 123.105L893.502 1.58333H931.491Z" fill="#3F3A39"/>
<path d="M1172.11 1.58333V28.5002H1100.88C1097.45 28.5002 1095.01 29.2259 1093.56 30.6773C1092.24 31.9967 1091.58 34.3717 1091.58 37.8023V57.0004H1170.33V82.7297H1091.58V103.907C1091.58 107.337 1092.24 109.778 1093.56 111.23C1095.01 112.549 1097.45 113.209 1100.88 113.209H1172.9V140.126H1076.94C1062.95 140.126 1055.96 133.067 1055.96 118.949V22.9585C1055.96 8.70838 1062.95 1.58333 1076.94 1.58333H1172.11Z" fill="#3F3A39"/>
<path d="M1268.75 140.126H1233.13V29.2918H1181.69V1.58333H1320.19V29.2918H1268.75V140.126Z" fill="#3F3A39"/>
<path d="M405.205 207.467H396.467L393.248 199.057H373.144L369.925 207.467H361.188L378.4 163.646H387.992L405.205 207.467ZM391.08 192.291L383.196 171.399L375.312 192.291H391.08Z" fill="#3F3A39"/>
<path d="M464.389 207.467H456.965L434.102 176.195V207.467H426.415V163.646H434.299L456.702 194.064V163.646H464.389V207.467Z" fill="#3F3A39"/>
<path d="M497.811 207.467H490.124V163.646H497.811V207.467Z" fill="#3F3A39"/>
<path d="M569.078 207.467H561.392V174.946L547.924 207.467H544.639L531.237 174.946V207.467H523.55V163.646H534.39L546.281 192.488L558.238 163.646H569.078V207.467Z" fill="#3F3A39"/>
<path d="M634.248 207.467H625.51L622.291 199.057H602.187L598.968 207.467H590.231L607.443 163.646H617.035L634.248 207.467ZM620.123 192.291L612.239 171.399L604.355 192.291H620.123Z" fill="#3F3A39"/>
<path d="M682.46 207.467H655.458V163.646H663.145V200.7H682.46V207.467Z" fill="#3F3A39"/>
<path d="M777.29 207.467H769.604V188.349H746.807V207.467H739.12V163.646H746.807V181.582H769.604V163.646H777.29V207.467Z" fill="#3F3A39"/>
<path d="M833.045 207.467H803.021V163.646H833.045V170.413H810.708V181.779H832.585V188.546H810.708V200.7H833.045V207.467Z" fill="#3F3A39"/>
<path d="M896.781 207.467H888.043L884.824 199.057H864.721L861.502 207.467H852.764L869.977 163.646H879.568L896.781 207.467ZM882.656 192.291L874.773 171.399L866.889 192.291H882.656Z" fill="#3F3A39"/>
<path d="M944.993 207.467H917.992V163.646H925.678V200.7H944.993V207.467Z" fill="#3F3A39"/>
<path d="M979.944 207.467H972.257V170.413H958.986V163.646H993.215V170.413H979.944V207.467Z" fill="#3F3A39"/>
<path d="M1054.32 207.467H1046.64V188.349H1023.84V207.467H1016.15V163.646H1023.84V181.582H1046.64V163.646H1054.32V207.467Z" fill="#3F3A39"/>
</svg>
