<svg width="679" height="678" viewBox="0 0 679 678" fill="none" xmlns="http://www.w3.org/2000/svg">
<path d="M646.806 196.84C634.685 210.384 623.277 223.927 612.582 237.47C607.591 243.172 603.313 248.875 598.322 255.29C606.878 281.664 611.869 310.176 611.869 339.4C611.156 489.088 489.233 610.977 339.503 610.977C189.773 610.977 67.8501 489.088 67.8501 339.4C67.8501 189.712 189.773 67.8235 339.503 67.8235C387.274 67.8235 432.906 80.6539 472.121 102.038C485.668 88.4947 499.215 75.6643 513.475 62.8339L522.744 54.9931C469.982 20.7787 407.238 0.820312 339.503 0.820312C152.697 0.820312 0.828125 152.647 0.828125 339.4C0.828125 526.154 152.697 677.98 339.503 677.98C526.309 677.98 678.178 526.154 678.178 339.4C678.178 288.792 666.77 240.321 646.806 196.84Z" fill="#F8BE26"/>
<path d="M435.045 238.896C409.377 270.259 385.135 302.335 362.319 335.124C350.911 351.518 339.503 368.626 328.808 385.733L237.544 273.11C226.849 260.28 208.311 257.429 194.051 266.695C179.078 276.674 175.513 296.633 185.495 311.602L300.288 481.961C303.14 486.238 307.418 490.514 312.409 493.366C318.826 497.642 325.956 499.781 333.086 499.781C346.633 499.781 361.606 492.653 368.023 480.535C374.44 469.13 406.525 409.968 427.915 377.892C448.592 345.816 469.982 314.453 493.511 283.802C516.327 253.152 540.57 223.214 566.238 194.702C591.193 166.19 618.286 136.966 645.38 112.018L646.093 111.305C658.927 99.1871 659.641 79.2287 648.233 66.3983C636.112 52.8551 616.147 51.4295 602.6 63.5471C571.228 91.3463 543.421 119.146 515.614 148.37C487.094 177.595 460 207.533 435.045 238.896Z" fill="#F8BE26"/>
</svg>
